<svg width="150" height="46" viewBox="0 0 150 46" fill="none" xmlns="http://www.w3.org/2000/svg">
<path d="M140.44 11.3213H149.824V12.9586H141.784V17.0691H149.191V18.662H141.82V23.2081H149.999V24.8242H139.985V11.3213H140.44Z" fill="black"/>
<path d="M136.771 12.7181V24.7161H134.868L127.854 13.7662V24.7161H126.149V11.3385H128.365L134.957 22.0751V11.3213H136.777L136.771 12.7181Z" fill="black"/>
<path d="M99.3352 12.236V11.3213H109.453V13.0334L101.031 23.3567H109.453V24.9536H98.6934V23.6558L106.986 13.0001H99.3564L99.3352 12.236Z" fill="black"/>
<path d="M45.6644 10.9209H55.0396V13.5902H54.128C54.128 13.5902 52.2602 11.398 48.0375 11.777V17.732H51.204V18.6113H48.1153V22.2791C48.1153 22.2791 48.3114 23.5506 48.9825 24.3177V25.0879H44.7578V24.5259C44.7578 24.5259 45.6826 23.8831 45.7816 22.5258V13.8681C45.7816 13.8681 45.7554 12.5916 44.9478 11.6557V10.9199H45.6644V10.9209Z" fill="black"/>
<path d="M68.1726 25.0735L66.5908 23.8122L63.0594 19.831L62.0902 19.64C62.0902 19.64 65.001 19.5187 66.2543 16.9091C66.2543 16.9091 67.744 13.5657 64.3885 11.5039C64.3885 11.5039 63.7477 10.8015 60.186 10.94H56.0078V11.6131L57.1186 12.3731V23.2239C57.1186 23.2239 56.874 23.983 56.0594 24.4843C56.0594 24.4843 55.9573 24.8118 56.0594 25.0735H60.3296V24.4196C60.3296 24.4196 59.5331 24.176 59.2501 23.2189V19.5622H60.7065L64.4178 24.1487L63.5537 25.0725H68.1726V25.0735ZM60.7065 18.9255H59.2511V11.5646H60.7065C60.7065 11.5646 64.998 11.0764 65.2628 15.2445C64.999 19.4126 60.7065 18.9255 60.7065 18.9255Z" fill="black"/>
<path d="M69.7459 13.762V22.9988L68.7392 25.0727H78.8967V22.0639C78.8967 22.0639 77.3918 23.9518 75.4765 23.9518H71.9159V18.6376H74.9348V17.7906H71.9159V11.7861H75.611C75.611 11.7861 78.4591 12.2712 78.8957 13.7822V10.9199H68.624L69.7843 12.9464L69.7459 13.762Z" fill="black"/>
<path d="M92.3587 10.9209H93.8383C93.8383 10.9209 92.8458 12.1398 92.768 12.7816V25.0879H90.4454L82.3245 12.345V23.6052C82.3245 23.6052 82.469 24.7351 83.1907 25.0727H80.3506C80.3506 25.0727 81.0399 24.1085 81.1875 23.6213V12.6603C81.1875 12.6603 81.0783 11.3181 80.1768 10.9199H83.5333L91.8432 23.5233V12.5805C91.8432 12.5805 91.4733 11.0564 90.7962 10.9199H92.3587V10.9209Z" fill="black"/>
<path d="M35.9371 18.0042H25.1145V28.8267C19.1373 28.8267 14.292 23.9824 14.292 18.0042C14.292 12.0289 19.1363 7.18164 25.1145 7.18164C31.0908 7.18164 35.9371 12.0279 35.9371 18.0042Z" fill="black"/>
<path d="M25.1149 36.0071C15.1878 36.0071 7.11133 27.9306 7.11133 18.0035C7.11133 8.07648 15.1878 0 25.1149 0V3.58494C17.1647 3.58494 10.6963 10.0534 10.6963 18.0035C10.6963 25.9537 17.1647 32.4221 25.1149 32.4221V36.0071Z" fill="black"/>
<path d="M25.1128 43.1167C11.2652 43.1167 0 31.8515 0 18.0039H3.58494C3.58494 29.8745 13.2422 39.5317 25.1128 39.5317V43.1167Z" fill="black"/>
<path d="M123.171 14.8896C122.203 12.3679 120.103 10.952 117.354 10.9206C114.421 10.8852 112.324 12.1901 111.254 14.735C110.47 16.6028 110.412 18.519 110.965 20.4525C111.821 23.4411 114.071 25.1058 117.184 25.0865C120.081 25.0694 122.18 23.6928 123.174 21.1135C123.971 19.0466 123.962 16.9565 123.171 14.8896ZM121.353 20.7133C120.576 22.6053 118.953 23.5695 116.86 23.4755C115.018 23.3926 113.506 22.2222 112.867 20.3636C112.595 19.5762 112.473 18.7616 112.492 18.0855C112.477 15.0695 113.978 13.0209 116.402 12.5913C118.432 12.2325 120.364 13.1785 121.229 15.0473C122.088 16.9019 122.132 18.8202 121.353 20.7133Z" fill="black"/>
<path d="M49.8537 43.6309V45.0398H44.7578V37.7881H46.4527V43.6309H49.8537Z" fill="black"/>
<path d="M52.1442 45.0398H50.4492V37.7881H52.1442V45.0398Z" fill="black"/>
<path d="M54.465 37.7891L56.8058 43.0305L59.1566 37.7891H60.9526L57.7134 45.0408H55.9072L52.668 37.7891H54.465Z" fill="black"/>
<path d="M61.4072 37.7891H66.9367V39.1768H63.1022V40.7413H66.4122V42.0876H63.1022V43.6521H66.9367V45.0398H61.4072V37.7891Z" fill="black"/>
</svg>
