<svg width="21" height="19" viewBox="0 0 21 19" fill="none" xmlns="http://www.w3.org/2000/svg">
<path d="M1.8027 0.303711L19.9778 0.303711C20.2456 0.303711 20.5024 0.410092 20.6918 0.599453C20.8811 0.788813 20.9875 1.04564 20.9875 1.31344V17.4691C20.9875 17.7369 20.8811 17.9937 20.6918 18.183C20.5024 18.3724 20.2456 18.4788 19.9778 18.4788H1.8027C1.5349 18.4788 1.27807 18.3724 1.08871 18.183C0.89935 17.9937 0.792969 17.7369 0.792969 17.4691L0.792969 1.31344C0.792969 1.04564 0.89935 0.788813 1.08871 0.599453C1.27807 0.410092 1.5349 0.303711 1.8027 0.303711ZM18.968 4.58293L10.9629 11.752L2.81242 4.56072L2.81242 16.4593H18.968V4.58293ZM3.32839 2.32316L10.9518 9.04996L18.4652 2.32316L3.32839 2.32316Z" fill="white"/>
</svg>
