<svg width="29" height="30" viewBox="0 0 29 30" fill="none" xmlns="http://www.w3.org/2000/svg">
<path d="M16.2049 1.3623V3.29074C18.1123 3.29074 19.8992 3.77285 21.5657 4.73707C23.1518 5.6812 24.4167 6.94674 25.3603 8.53368C26.3241 10.201 26.8059 11.9888 26.8059 13.8971H28.7334C28.7334 11.6272 28.1612 9.51799 27.0168 7.56946C25.9125 5.6812 24.4167 4.18465 22.5294 3.07982C20.5819 1.93481 18.4737 1.3623 16.2049 1.3623ZM6.23636 4.25496C5.69426 4.25496 5.22243 4.42571 4.82088 4.7672L1.71888 7.93104L1.80923 7.87078C1.30729 8.29262 0.976004 8.81491 0.815382 9.43763C0.674839 10.0604 0.714994 10.663 0.935848 11.2455C1.49802 12.8124 2.25094 14.4194 3.19459 16.0666C4.51971 18.3366 6.09581 20.3755 7.92288 22.1834C10.8542 25.1363 14.4983 27.4665 18.8552 29.174H18.8853C19.4675 29.3749 20.0498 29.415 20.6321 29.2945C21.2344 29.174 21.7664 28.9128 22.2282 28.5111L25.27 25.4678C25.6716 25.066 25.8723 24.5739 25.8723 23.9913C25.8723 23.3887 25.6716 22.8865 25.27 22.4847L21.3247 18.5073C20.9232 18.1056 20.4212 17.9047 19.8189 17.9047C19.2166 17.9047 18.7146 18.1056 18.3131 18.5073L16.4157 20.4358C14.8898 19.7126 13.5647 18.8187 12.4404 17.754C11.316 16.6693 10.4226 15.3535 9.75999 13.8067L11.6874 11.8783C12.1091 11.4364 12.3199 10.9141 12.3199 10.3115C12.3199 9.68873 12.079 9.18654 11.5971 8.80487L11.6874 8.89526L7.65183 4.7672C7.25028 4.42571 6.77845 4.25496 6.23636 4.25496ZM16.2049 5.21918V7.14762C17.4297 7.14762 18.554 7.44893 19.578 8.05157C20.622 8.65421 21.4452 9.47781 22.0475 10.5224C22.6499 11.5469 22.951 12.6718 22.951 13.8971H24.8785C24.8785 12.3303 24.487 10.8739 23.7039 9.52803C22.9209 8.22232 21.8769 7.17775 20.5718 6.39432C19.2266 5.61089 17.771 5.21918 16.2049 5.21918ZM6.23636 6.1834C6.29659 6.1834 6.36686 6.21353 6.44717 6.27379L10.3924 10.3115C10.4125 10.3918 10.3924 10.4621 10.3322 10.5224L7.47113 13.3548L7.68195 13.9574L8.07346 14.8011C8.39471 15.4841 8.76614 16.147 9.18778 16.7898C9.77003 17.6938 10.4125 18.4671 11.1152 19.11C12.0589 20.034 13.1933 20.8777 14.5184 21.641C15.181 22.0227 15.7431 22.3039 16.2049 22.4847L16.8073 22.7559L19.7286 19.8331C19.7687 19.7929 19.7988 19.7729 19.8189 19.7729C19.839 19.7729 19.8691 19.7929 19.9093 19.8331L23.975 23.9009C24.0151 23.9411 24.0352 23.9712 24.0352 23.9913C24.0352 23.9913 24.0151 24.0114 23.975 24.0516L20.9633 27.0346C20.5216 27.4163 20.0398 27.5167 19.5177 27.3359C15.4219 25.749 12.0087 23.5795 9.27812 20.8275C7.5916 19.1401 6.11589 17.2217 4.851 15.0723C3.9475 13.5255 3.24478 12.029 2.74284 10.5826V10.5525C2.66253 10.3717 2.65249 10.1608 2.71272 9.91974C2.77296 9.6586 2.88338 9.45772 3.044 9.31711L6.02554 6.27379C6.08577 6.21353 6.15605 6.1834 6.23636 6.1834ZM16.2049 9.07605V11.0045C17.008 11.0045 17.6907 11.2857 18.2528 11.8482C18.815 12.4106 19.0961 13.0936 19.0961 13.8971H21.0236C21.0236 13.0334 20.8027 12.2299 20.361 11.4866C19.9394 10.7433 19.3571 10.1608 18.6142 9.73895C17.8714 9.29702 17.0683 9.07605 16.2049 9.07605Z" fill="black"/>
</svg>
